<svg width="66" height="66" viewBox="0 0 66 66" fill="none" xmlns="http://www.w3.org/2000/svg">
<rect x="19.4804" y="3.41671" width="46" height="46" rx="23" transform="rotate(20.4372 19.4804 3.41671)" fill="#E6BC3E"/>
<rect x="19.4804" y="3.41671" width="46" height="46" rx="23" transform="rotate(20.4372 19.4804 3.41671)" stroke="#FFE600" stroke-width="4"/>
<path d="M42.909 24.4897C43.2173 25.0048 43.2651 25.5478 43.0523 26.1189C42.8641 26.624 42.5247 26.9978 42.0342 27.2402C41.5656 27.4908 41.0596 27.5398 40.5161 27.3873C40.4503 27.3628 40.3954 27.3423 40.3514 27.326C39.8902 27.1541 39.522 26.8668 39.2469 26.4642C38.573 25.5878 37.7199 24.9572 36.6877 24.5726C35.6994 24.2043 34.8407 24.1594 34.1116 24.438C33.4127 24.7028 32.8913 25.2964 32.5476 26.2188C32.3594 26.724 32.3303 27.2384 32.4603 27.762C32.6122 28.2939 32.8725 28.8036 33.2411 29.2911C33.6179 29.7567 34.0524 30.2687 34.5446 30.8273C35.0449 31.3639 35.5563 31.9046 36.0786 32.4494C36.6091 32.9723 37.1 33.5679 37.5513 34.2363C38.0107 34.8827 38.3879 35.5485 38.6829 36.2337C38.986 36.8969 39.1412 37.6551 39.1484 38.5082C39.1776 39.3695 39.0245 40.2504 38.6889 41.1508C38.2388 42.3587 37.6141 43.364 36.8148 44.1667C36.0456 44.9556 35.1059 45.5308 33.9956 45.8925C32.9156 46.2404 31.7225 46.321 30.4163 46.1345C30.1803 46.0965 30.0214 46.1874 29.9396 46.407L29.2276 48.3177C29.0557 48.7789 28.7437 49.1129 28.2915 49.3196C27.8613 49.5344 27.4155 49.5559 26.9543 49.3841C26.4931 49.2122 26.1592 48.9002 25.9525 48.448C25.7458 47.9958 25.7284 47.5391 25.9003 47.0779L26.5632 45.2989C26.6368 45.1013 26.572 44.9396 26.3688 44.8138C24.7677 43.9421 23.3992 42.7818 22.2633 41.333C21.8865 40.8675 21.7606 40.3328 21.8855 39.7291C21.9127 39.5891 21.9467 39.4642 21.9876 39.3544C22.1513 38.9152 22.4194 38.5648 22.7919 38.3035C23.2713 37.9568 23.7908 37.8378 24.3507 37.9464C24.5126 37.9817 24.6594 38.0239 24.7912 38.073C25.1646 38.2121 25.4901 38.446 25.7679 38.7746C26.791 40.0563 27.9504 40.9385 29.2462 41.4214C31.5303 42.2725 33.0447 41.6988 33.7894 39.7002C33.9858 39.1732 34.0162 38.6217 33.8806 38.0459C33.767 37.4783 33.5299 36.9398 33.1695 36.4303C32.8311 35.929 32.4158 35.3991 31.9236 34.8405C31.4396 34.26 30.9254 33.6932 30.3811 33.1402C29.8588 32.5954 29.3679 31.9998 28.9085 31.3533C28.4572 30.6849 28.0759 30.0301 27.7646 29.3889C27.4835 28.7338 27.3201 27.9976 27.2745 27.1803C27.2509 26.3711 27.3986 25.5382 27.7178 24.6817C28.3725 22.9247 29.393 21.6292 30.7793 20.7952C32.1958 19.9473 33.8191 19.6518 35.6494 19.9086C35.8935 19.9246 36.0524 19.8337 36.1261 19.6361L36.8504 17.6924C37.0222 17.2312 37.3302 16.9082 37.7742 16.7235C38.2264 16.5168 38.6831 16.4994 39.1443 16.6713C39.6055 16.8432 39.9284 17.1511 40.1132 17.5951C40.328 18.0253 40.3495 18.4711 40.1777 18.9323L39.4779 20.81C39.4043 21.0077 39.4691 21.1694 39.6723 21.2952C40.9879 22.0605 42.0668 23.1254 42.909 24.4897Z" fill="#4B3300"/>
</svg>
